<svg xmlns="http://www.w3.org/2000/svg" viewBox="0 0 512 768" role="img" aria-label="Iris neutral sprite">
  <rect width="512" height="768" fill="none"/>
  <ellipse cx="256" cy="718" rx="150" ry="24" fill="#000" opacity=".2"/>
  <path d="M150 725c18-180 24-302 106-302s88 122 106 302z" fill="#2a2638"/>
  <path d="M174 500c22-70 58-105 82-105s60 35 82 105l-40 190h-84z" fill="#4b3d68"/>
  <circle cx="256" cy="262" r="92" fill="#edbea2"/>
  <path d="M170 278c-2-112 62-170 130-148 50 16 74 72 52 148-42-34-102-47-182 0z" fill="#3f2940"/>
  <path d="M202 284h30M280 284h30" stroke="#111827" stroke-width="8" stroke-linecap="round"/>
  <path d="M224 338c24 12 43 12 66 0" stroke="#814247" stroke-width="7" stroke-linecap="round" fill="none"/>
  <path d="M180 430h152l-28 86h-96z" fill="#ddd0ff"/>
</svg>
